<svg xmlns="http://www.w3.org/2000/svg" width="512" height="512" viewBox="0 0 100 100">
<defs><linearGradient id="sky" x1="0" y1="0" x2="0" y2="1"><stop offset="0" stop-color="#ffc850"></stop><stop offset="0.44" stop-color="#f1823b"></stop><stop offset="1" stop-color="#34306a"></stop></linearGradient>
<clipPath id="tile"><rect x="0" y="0" width="100" height="100" rx="23"></rect></clipPath></defs>
<g clip-path="url(#tile)"><rect x="0" y="0" width="100" height="100" fill="url(#sky)"></rect>
<path d="M0 68 C 20 68, 26 52, 40 52 C 58 52, 66 64, 100 66 L100 0 L0 0 Z" fill="rgba(255,214,130,0.20)"></path>
<path d="M0 68 C 20 68, 26 52, 40 52 C 58 52, 66 64, 100 66 L100 100 L0 100 Z" fill="rgba(18,16,52,0.52)"></path>
<line x1="20.19" y1="47.22" x2="13.76" y2="46.31" stroke="#fef6e9" stroke-width="2.8" stroke-linecap="round"></line><line x1="23.68" y1="38.43" x2="18.38" y2="34.67" stroke="#fef6e9" stroke-width="2.8" stroke-linecap="round"></line><line x1="30.82" y1="32.23" x2="27.83" y2="26.46" stroke="#fef6e9" stroke-width="2.8" stroke-linecap="round"></line><line x1="40.00" y1="30.00" x2="40.00" y2="23.50" stroke="#fef6e9" stroke-width="2.8" stroke-linecap="round"></line><line x1="49.18" y1="32.23" x2="52.17" y2="26.46" stroke="#fef6e9" stroke-width="2.8" stroke-linecap="round"></line><line x1="56.32" y1="38.43" x2="61.62" y2="34.67" stroke="#fef6e9" stroke-width="2.8" stroke-linecap="round"></line><line x1="59.81" y1="47.22" x2="66.24" y2="46.31" stroke="#fef6e9" stroke-width="2.8" stroke-linecap="round"></line><circle cx="40" cy="50" r="17" fill="#fef6e9"></circle>
<path d="M0 68 C 20 68, 26 52, 40 52 C 58 52, 66 64, 100 66" fill="none" stroke="#fef6e9" stroke-width="5.5" stroke-linecap="round"></path></g></svg>